<svg xmlns="http://www.w3.org/2000/svg" version="1.1" xmlns:xlink="http://www.w3.org/1999/xlink" width="200" height="200"><svg xmlns="http://www.w3.org/2000/svg" version="1.1" xmlns:xlink="http://www.w3.org/1999/xlink" width="200" height="200"><svg xmlns="http://www.w3.org/2000/svg" version="1.1" xmlns:xlink="http://www.w3.org/1999/xlink" viewBox="0 0 200 200"><rect width="200" height="200" fill="url('#gradient')"></rect><defs><linearGradient id="gradient" gradientTransform="rotate(39 0.5 0.5)"><stop offset="0%" stop-color="#000000"></stop><stop offset="100%" stop-color="#5490ff"></stop></linearGradient></defs><g><g fill="#ffffff" transform="matrix(6.693918080264791,0,0,6.693918080264791,18.637108978625406,147.59801340833104)" stroke="#0e5278" stroke-width="0"><path d="M6.74-4.46L6.74-14.22L10.16-14.22L10.16-4.46Q10.16-3.11 9.53-2.04Q8.90-0.98 7.77-0.39Q6.64 0.20 5.25 0.20L5.25 0.20Q2.93 0.20 1.64-0.98Q0.35-2.15 0.35-4.30L0.35-4.30L3.79-4.30Q3.79-3.32 4.13-2.88Q4.46-2.44 5.25-2.44L5.25-2.44Q5.97-2.44 6.35-2.97Q6.74-3.51 6.74-4.46L6.74-4.46ZM23.96-7.60L23.96-1.76Q23.16-0.88 21.64-0.34Q20.12 0.20 18.30 0.20L18.30 0.20Q15.51 0.20 13.84-1.51Q12.17-3.22 12.05-6.27L12.05-6.27L12.04-7.50Q12.04-9.60 12.78-11.17Q13.53-12.73 14.91-13.58Q16.29-14.42 18.11-14.42L18.11-14.42Q20.76-14.42 22.23-13.21Q23.70-11.99 23.95-9.58L23.95-9.58L20.64-9.58Q20.47-10.77 19.88-11.28Q19.30-11.79 18.22-11.79L18.22-11.79Q16.93-11.79 16.23-10.69Q15.53-9.60 15.52-7.57L15.52-7.57L15.52-6.71Q15.52-4.58 16.25-3.51Q16.97-2.44 18.54-2.44L18.54-2.44Q19.87-2.44 20.53-3.04L20.53-3.04L20.53-5.24L18.14-5.24L18.14-7.60L23.96-7.60Z"></path></g></g></svg></svg><style>@media (prefers-color-scheme: light) { :root { filter: none; } }
@media (prefers-color-scheme: dark) { :root { filter: none; } }
</style></svg>